<svg xmlns="http://www.w3.org/2000/svg" width="512" height="512" viewBox="0 0 551.13 551.13"><path xmlns="http://www.w3.org/2000/svg" d="M275.565 103.337c9.52 0 17.223-7.703 17.223-17.223V17.223c0-9.52-7.703-17.223-17.223-17.223s-17.223 7.703-17.223 17.223v68.891c0 9.52 7.703 17.223 17.223 17.223zm0 344.456c-9.52 0-17.223 7.703-17.223 17.223v68.891c0 9.52 7.703 17.223 17.223 17.223s17.223-7.703 17.223-17.223v-68.891c0-9.52-7.703-17.223-17.223-17.223zm258.342-189.451h-68.891c-9.52 0-17.223 7.703-17.223 17.223s7.703 17.223 17.223 17.223h68.891c9.52 0 17.223-7.703 17.223-17.223s-7.703-17.223-17.223-17.223zm-430.57 17.223c0-9.52-7.703-17.223-17.223-17.223H17.223C7.703 258.342 0 266.045 0 275.565s7.703 17.223 17.223 17.223h68.891c9.52 0 17.223-7.703 17.223-17.223zm306.192-116.742c4.407 0 8.813-1.682 12.177-5.046l48.708-48.708c6.728-6.728 6.728-17.626 0-24.354s-17.626-6.728-24.354 0l-48.708 48.708c-6.728 6.728-6.728 17.626 0 24.354a17.164 17.164 0 0012.177 5.046zM129.424 397.351L80.715 446.06c-6.728 6.728-6.728 17.626 0 24.354 3.364 3.364 7.77 5.046 12.177 5.046s8.813-1.682 12.177-5.046l48.708-48.708c6.728-6.728 6.728-17.626 0-24.354s-17.626-6.728-24.353-.001zm292.282 0c-6.728-6.728-17.626-6.728-24.354 0s-6.728 17.626 0 24.354l48.708 48.708c3.364 3.364 7.77 5.046 12.177 5.046s8.813-1.682 12.177-5.046c6.728-6.728 6.728-17.626 0-24.354l-48.708-48.708zM129.423 153.778c3.364 3.364 7.77 5.046 12.177 5.046s8.813-1.682 12.177-5.046c6.728-6.728 6.728-17.626 0-24.354l-48.708-48.708c-6.728-6.728-17.626-6.728-24.354 0s-6.728 17.626 0 24.354l48.708 48.708zm146.142-15.995c-75.972 0-137.783 61.81-137.783 137.783s61.81 137.783 137.783 137.783 137.783-61.81 137.783-137.783-61.811-137.783-137.783-137.783zm0 241.119c-56.983 0-103.337-46.354-103.337-103.337s46.353-103.337 103.337-103.337 103.337 46.353 103.337 103.337-46.354 103.337-103.337 103.337z" data-original="#000000"/></svg>