<svg xmlns="http://www.w3.org/2000/svg" width="512" height="512" viewBox="0 0 64 64"><path d="M32 14a2 2 0 01-2-2V8a2 2 0 014 0v4a2 2 0 01-2 2zm24 20h-4a2 2 0 010-4h4a2 2 0 010 4zM32 58a2 2 0 01-2-2v-4a2 2 0 014 0v4a2 2 0 01-2 2zM12 34H8a2 2 0 010-4h4a2 2 0 010 4zm19.906 11.991c-1.343 0-2.681-.199-3.975-.592-4.955-1.503-8.762-5.763-9.699-10.851-.953-5.178 1.148-10.57 5.352-13.738 2.395-1.803 5.393-2.796 8.442-2.796 2.207 0 4.395.521 6.328 1.507C42.999 21.892 46 26.79 46 32c0 3.762-1.514 7.3-4.264 9.961-2.646 2.561-6.229 4.03-9.83 4.03zm.12-23.976c-2.187 0-4.33.707-6.035 1.991-3.004 2.264-4.506 6.118-3.825 9.819.669 3.632 3.388 6.673 6.926 7.747 3.404 1.035 7.251.042 9.862-2.484C40.918 37.186 42 34.669 42 32c0-3.722-2.145-7.222-5.464-8.915a9.968 9.968 0 00-4.51-1.07z" data-original="#000000" xmlns="http://www.w3.org/2000/svg"/></svg>