<svg xmlns="http://www.w3.org/2000/svg" version="1.1" xmlns:xlink="http://www.w3.org/1999/xlink" xmlns:svgjs="http://svgjs.com/svgjs" width="512" height="512" x="0" y="0" viewBox="0 0 511.947 511.947" style="enable-background:new 0 0 512 512" xml:space="preserve" class=""><g><g xmlns="http://www.w3.org/2000/svg"><path d="m165.01 492.259c33.887-.002 65.272-10.708 90.963-28.918v-18.246z" fill="#077ccc" data-original="#077ccc"></path><path d="m255.974 445.094v-193.436l-156.832-60c-54.093 24.936-91.642 79.63-91.642 143.101 0 86.985 70.515 157.5 157.5 157.5 35.635-.004 67.841-18.063 90.974-47.165z" fill="#09a1e5" data-original="#09a1e5" class=""></path><path d="m412.805 191.658-7.661 2.931-58.197 297.67c86.985 0 157.5-70.515 157.5-157.5 0-63.471-37.549-118.165-91.642-143.101z" fill="#cb2e81" data-original="#cb2e81" class=""></path><path d="m474.447 334.759c0-61.085-28.152-114.046-69.303-140.17l-149.171 57.069v211.682c25.694 18.212 57.083 28.918 90.974 28.918 70.416.001 127.5-70.514 127.5-157.499z" fill="#ff3187" data-original="#ff3187" class=""></path><path d="m255.974 19.688 125.262 186.971 31.57-15c.434-4.766.668-9.591.668-14.47 0-86.986-70.516-157.501-157.5-157.501z" fill="#49b296" data-original="#49b296"></path><path d="m255.974 19.688c-86.985 0-157.5 70.515-157.5 157.5 0 4.88.234 9.704.668 14.47l156.832 74.52 125.262-59.519c1.463-9.548 2.238-19.397 2.238-29.471 0-86.985-57.084-157.5-127.5-157.5z" fill="#89c247" data-original="#89c247" class=""></path><path d="m165 177.259 81.4 36.277c3.095-2.57 6.285-5.028 9.573-7.358-25.693-18.212-57.082-28.919-90.973-28.919z" fill="#49b296" data-original="#49b296"></path><path d="m165 177.259c-23.514 0-45.819 5.161-65.858 14.399 5.214 57.232 41.04 105.612 90.974 128.631 3.905-42.86 24.976-80.754 56.285-106.753-22.084-22.653-50.454-36.277-81.401-36.277z" fill="#7ed7ff" data-original="#7ed7ff" class=""></path><path d="m255.974 206.178c36.553 25.909 61.567 67.015 65.858 114.111 49.934-23.019 85.759-71.398 90.974-128.631-20.039-9.238-42.344-14.399-65.858-14.399-33.891 0-65.28 10.707-90.974 28.919z" fill="#ffb24a" data-original="#ffb24a"></path><path d="m255.974 206.178c-3.288 2.331-6.479 4.789-9.573 7.358l46.05 116.887c10.213-2.425 20.046-5.83 29.382-10.134-4.292-47.096-29.306-88.202-65.859-114.111z" fill="#fff0be" data-original="#fff0be"></path><path d="m190.115 320.289c20.039 9.238 42.344 14.399 65.858 14.399 12.559 0 24.768-1.486 36.476-4.265-1.029-46.998-18.724-88.856-46.05-116.887-31.307 25.999-52.379 63.893-56.284 106.753z" fill="#ffffff" data-original="#ffffff"></path><path d="m321.832 320.289c-9.336 4.304-19.169 7.709-29.382 10.134.031 1.441.05 2.886.05 4.336l-46.093 121.216c3.095 2.57 6.279 5.035 9.567 7.365 40.253-28.531 66.526-75.487 66.526-128.582 0-4.879-.234-9.703-.668-14.469z" fill="#ff5178" data-original="#ff5178" class=""></path><path d="m292.45 330.423c-11.708 2.779-23.917 4.265-36.476 4.265-23.514 0-45.819-5.161-65.858-14.399-.434 4.766-.668 9.591-.668 14.47 0 48.758 22.167 92.326 56.96 121.216 28.159-28.89 46.093-72.464 46.093-121.216-.001-1.45-.02-2.895-.051-4.336z" fill="#ff7169" data-original="#ff7169" class=""></path><path d="m420.663 187.171c.198-3.304.311-6.63.311-9.983 0-90.981-74.019-165-165-165s-165 74.019-165 165c0 64.502 37.209 120.468 91.284 147.587-.198 3.304-.311 6.63-.311 9.983 0 51.626 23.84 97.783 61.081 128.062-22.748 13.912-49.468 21.938-78.028 21.938-82.71 0-150-67.29-150-150 0-47.89 22.066-91.777 60.541-120.41 3.323-2.473 4.012-7.171 1.539-10.494s-7.171-4.012-10.494-1.539c-20.208 15.039-36.958 34.802-48.44 57.15-12.041 23.437-18.146 48.769-18.146 75.294 0 90.981 74.019 165 165 165 33.598 0 64.876-10.103 90.974-27.417 26.098 17.314 57.376 27.417 90.974 27.417 90.981 0 165-74.019 165-165-.001-64.502-37.21-120.468-91.285-147.588zm-314.689-9.983c0-82.71 67.29-150 150-150s150 67.29 150 150c0 1.163-.018 2.321-.044 3.478-18.325-7.038-38.209-10.908-58.982-10.908-33.598 0-64.876 10.103-90.974 27.417-26.098-17.314-57.376-27.417-90.974-27.417-20.404 0-40.194 3.664-58.983 10.877-.026-1.145-.043-2.294-.043-3.447zm162.945 29.509c22.748-13.912 49.468-21.938 78.028-21.938 20.478 0 40.007 4.13 57.807 11.592-6.211 48.494-35.671 89.816-76.809 112.409-6.514-40.977-28.165-76.972-59.026-102.063zm44.862 108.899c-17.8 7.462-37.33 11.592-57.807 11.592s-40.007-4.13-57.807-11.592c5.206-40.646 26.749-76.249 57.807-100.015 31.058 23.766 52.601 59.369 57.807 100.015zm-206.592-119.272c18.313-7.67 37.732-11.566 57.811-11.566 28.561 0 55.281 8.027 78.028 21.938-30.861 25.091-52.513 61.086-59.026 102.063-41.146-22.596-70.609-63.929-76.813-112.435zm89.758 138.435c0-1.163.018-2.321.044-3.478 18.325 7.038 38.209 10.908 58.982 10.908s40.657-3.869 58.982-10.908c.026 1.157.044 2.315.044 3.478 0 48.53-23.172 91.742-59.026 119.177-35.853-27.435-59.026-70.648-59.026-119.177zm150 150c-28.561 0-55.281-8.027-78.028-21.938 37.241-30.279 61.081-76.436 61.081-128.062 0-3.353-.113-6.679-.311-9.983 46.66-23.4 80.755-68.279 89.229-121.589 46.463 25.517 78.029 74.926 78.029 131.572 0 82.71-67.289 150-150 150z" fill="#000000" data-original="#000000" class=""></path></g></g></svg>