<svg xmlns="http://www.w3.org/2000/svg" version="1.1" xmlns:xlink="http://www.w3.org/1999/xlink" xmlns:svgjs="http://svgjs.com/svgjs" width="512" height="512" x="0" y="0" viewBox="0 0 64 64" style="enable-background:new 0 0 512 512" xml:space="preserve" class=""><g><g xmlns="http://www.w3.org/2000/svg"><g id="LINE_278_"><g><path d="m32 14c-1.104 0-2-.896-2-2v-4c0-1.104.896-2 2-2s2 .896 2 2v4c0 1.104-.896 2-2 2z" data-original="#000000" class=""></path></g></g><g id="LINE_277_"><g><path d="m56 34h-4c-1.104 0-2-.896-2-2s.896-2 2-2h4c1.104 0 2 .896 2 2s-.896 2-2 2z" data-original="#000000" class=""></path></g></g><g id="LINE_276_"><g><path d="m32 58c-1.104 0-2-.896-2-2v-4c0-1.104.896-2 2-2s2 .896 2 2v4c0 1.104-.896 2-2 2z" data-original="#000000" class=""></path></g></g><g id="LINE_275_"><g><path d="m12 34h-4c-1.104 0-2-.896-2-2s.896-2 2-2h4c1.104 0 2 .896 2 2s-.896 2-2 2z" data-original="#000000" class=""></path></g></g><g id="CIRCLE_30_"><g><path d="m31.906 45.991c-1.343 0-2.681-.199-3.975-.592-4.955-1.503-8.762-5.763-9.699-10.851-.953-5.178 1.148-10.57 5.352-13.738 2.395-1.803 5.393-2.796 8.442-2.796 2.207 0 4.395.521 6.328 1.507 4.645 2.371 7.646 7.269 7.646 12.479 0 3.762-1.514 7.3-4.264 9.961-2.646 2.561-6.229 4.03-9.83 4.03zm.12-23.976c-2.187 0-4.33.707-6.035 1.991-3.004 2.264-4.506 6.118-3.825 9.819.669 3.632 3.388 6.673 6.926 7.747 3.404 1.035 7.251.042 9.862-2.484 1.964-1.902 3.046-4.419 3.046-7.088 0-3.722-2.145-7.222-5.464-8.915-1.373-.7-2.932-1.07-4.51-1.07z" data-original="#000000" class=""></path></g></g></g></g></svg>