<svg width="0" height="0" class="hidden">
  <symbol xmlns="http://www.w3.org/2000/svg" version="1.1" xmlns:xlink="http://www.w3.org/1999/xlink" xmlnsSvgjs="http://svgjs.com/svgjs" x="0" y="0" xml:space="preserve" viewBox="0 0 551.13 551.13" id="big-sun">
    <g>
      <path xmlns="http://www.w3.org/2000/svg" d="m275.565 103.337c9.52 0 17.223-7.703 17.223-17.223v-68.891c0-9.52-7.703-17.223-17.223-17.223s-17.223 7.703-17.223 17.223v68.891c0 9.52 7.703 17.223 17.223 17.223z" data-original="#000000"></path>
      <path xmlns="http://www.w3.org/2000/svg" d="m275.565 447.793c-9.52 0-17.223 7.703-17.223 17.223v68.891c0 9.52 7.703 17.223 17.223 17.223s17.223-7.703 17.223-17.223v-68.891c0-9.52-7.703-17.223-17.223-17.223z" data-original="#000000"></path>
      <path xmlns="http://www.w3.org/2000/svg" d="m533.907 258.342h-68.891c-9.52 0-17.223 7.703-17.223 17.223s7.703 17.223 17.223 17.223h68.891c9.52 0 17.223-7.703 17.223-17.223s-7.703-17.223-17.223-17.223z" data-original="#000000"></path>
      <path xmlns="http://www.w3.org/2000/svg" d="m103.337 275.565c0-9.52-7.703-17.223-17.223-17.223h-68.891c-9.52 0-17.223 7.703-17.223 17.223s7.703 17.223 17.223 17.223h68.891c9.52 0 17.223-7.703 17.223-17.223z" data-original="#000000"></path>
      <path xmlns="http://www.w3.org/2000/svg" d="m409.529 158.823c4.407 0 8.813-1.682 12.177-5.046l48.708-48.708c6.728-6.728 6.728-17.626 0-24.354s-17.626-6.728-24.354 0l-48.708 48.708c-6.728 6.728-6.728 17.626 0 24.354 3.363 3.364 7.77 5.046 12.177 5.046z" data-original="#000000"></path>
      <path xmlns="http://www.w3.org/2000/svg" d="m129.424 397.351-48.709 48.709c-6.728 6.728-6.728 17.626 0 24.354 3.364 3.364 7.77 5.046 12.177 5.046s8.813-1.682 12.177-5.046l48.708-48.708c6.728-6.728 6.728-17.626 0-24.354s-17.626-6.728-24.353-.001z" data-original="#000000"></path>
      <path xmlns="http://www.w3.org/2000/svg" d="m421.706 397.351c-6.728-6.728-17.626-6.728-24.354 0s-6.728 17.626 0 24.354l48.708 48.708c3.364 3.364 7.77 5.046 12.177 5.046s8.813-1.682 12.177-5.046c6.728-6.728 6.728-17.626 0-24.354 0 .001-48.708-48.708-48.708-48.708z" data-original="#000000"></path>
      <path xmlns="http://www.w3.org/2000/svg" d="m129.423 153.778c3.364 3.364 7.77 5.046 12.177 5.046s8.813-1.682 12.177-5.046c6.728-6.728 6.728-17.626 0-24.354l-48.708-48.708c-6.728-6.728-17.626-6.728-24.354 0s-6.728 17.626 0 24.354c0 0 48.708 48.708 48.708 48.708z" data-original="#000000"></path>
      <path xmlns="http://www.w3.org/2000/svg" d="m275.565 137.783c-75.972 0-137.783 61.81-137.783 137.783s61.81 137.783 137.783 137.783 137.783-61.81 137.783-137.783-61.811-137.783-137.783-137.783zm0 241.119c-56.983 0-103.337-46.354-103.337-103.337s46.353-103.337 103.337-103.337 103.337 46.353 103.337 103.337-46.354 103.337-103.337 103.337z" data-original="#000000"></path>
    </g>
  </symbol>
  <symbol xmlns="http://www.w3.org/2000/svg" version="1.1" xmlns:xlink="http://www.w3.org/1999/xlink" xmlnsSvgjs="http://svgjs.com/svgjs" x="0" y="0" xml:space="preserve" viewBox="0 0 64 64" id="small-sun">
    <g>
      <g xmlns="http://www.w3.org/2000/svg">
        <g id="LINE_278_">
          <g>
            <path d="m32 14c-1.104 0-2-.896-2-2v-4c0-1.104.896-2 2-2s2 .896 2 2v4c0 1.104-.896 2-2 2z" data-original="#000000"></path>
          </g>
        </g>
        <g id="LINE_277_">
          <g>
            <path d="m56 34h-4c-1.104 0-2-.896-2-2s.896-2 2-2h4c1.104 0 2 .896 2 2s-.896 2-2 2z" data-original="#000000"></path>
          </g>
        </g>
        <g id="LINE_276_">
          <g>
            <path d="m32 58c-1.104 0-2-.896-2-2v-4c0-1.104.896-2 2-2s2 .896 2 2v4c0 1.104-.896 2-2 2z" data-original="#000000"></path>
          </g>
        </g>
        <g id="LINE_275_">
          <g>
            <path d="m12 34h-4c-1.104 0-2-.896-2-2s.896-2 2-2h4c1.104 0 2 .896 2 2s-.896 2-2 2z" data-original="#000000"></path>
          </g>
        </g>
        <g id="CIRCLE_30_">
          <g>
            <path d="m31.906 45.991c-1.343 0-2.681-.199-3.975-.592-4.955-1.503-8.762-5.763-9.699-10.851-.953-5.178 1.148-10.57 5.352-13.738 2.395-1.803 5.393-2.796 8.442-2.796 2.207 0 4.395.521 6.328 1.507 4.645 2.371 7.646 7.269 7.646 12.479 0 3.762-1.514 7.3-4.264 9.961-2.646 2.561-6.229 4.03-9.83 4.03zm.12-23.976c-2.187 0-4.33.707-6.035 1.991-3.004 2.264-4.506 6.118-3.825 9.819.669 3.632 3.388 6.673 6.926 7.747 3.404 1.035 7.251.042 9.862-2.484 1.964-1.902 3.046-4.419 3.046-7.088 0-3.722-2.145-7.222-5.464-8.915-1.373-.7-2.932-1.07-4.51-1.07z" data-original="#000000"></path>
          </g>
        </g>
      </g>
    </g>
  </symbol>
</svg>