<svg width="0" height="0" class="hidden">
  <symbol xmlns="http://www.w3.org/2000/svg" version="1.1" xmlns:xlink="http://www.w3.org/1999/xlink" xmlnsSvgjs="http://svgjs.com/svgjs" x="0" y="0" xml:space="preserve" viewBox="0 0 512 512" id="color">
    <g>
      <path xmlns="http://www.w3.org/2000/svg" d="m256 504.5c45.271 0 87.711-12.112 124.267-33.263v-10.834z" fill="#622876" data-original="#622876"></path>
      <path xmlns="http://www.w3.org/2000/svg" d="m256 256-58.242 146.576 58.242 101.924c46.17 0 88.986-16.301 124.267-44.097v-204.403z" fill="#962b7c" data-original="#962b7c"></path>
      <path xmlns="http://www.w3.org/2000/svg" d="m375.933 463.731 4.334 7.506c37.709-21.819 69.151-53.26 90.97-90.97v-81.305z" fill="#2d2570" data-original="#2d2570"></path>
      <path xmlns="http://www.w3.org/2000/svg" d="m471.237 298.962v-42.962h-215.237l119.933 207.731c49.354-36.931 84.763-95.987 95.304-164.769z" fill="#622876" data-original="#622876"></path>
      <path xmlns="http://www.w3.org/2000/svg" d="m473.956 238.546-23.087 129.961 20.369 11.76c21.15-36.556 33.262-78.996 33.262-124.267z" fill="#0556b2" data-original="#0556b2"></path>
      <path xmlns="http://www.w3.org/2000/svg" d="m473.956 238.546-71.38-40.788-146.576 58.242 194.868 112.507c15.109-33.78 23.632-72.011 23.632-112.507 0-5.869-.192-11.687-.544-17.454z" fill="#077ccc" data-original="#077ccc"></path>
      <path xmlns="http://www.w3.org/2000/svg" d="m471.237 131.733h-25.984l29.247 124.267h30c0-45.271-12.112-87.711-33.263-124.267z" fill="#077ccc" data-original="#077ccc"></path>
      <path xmlns="http://www.w3.org/2000/svg" d="m285.121 131.733-29.121 124.267h218.5c0-45.271-10.65-87.711-29.247-124.267z" fill="#09a1e5" data-original="#09a1e5"></path>
      <path xmlns="http://www.w3.org/2000/svg" d="m380.267 40.763h-15.002l85.603 102.729 20.369-11.76c-21.819-37.709-53.26-69.15-90.97-90.969z" fill="#2897b1" data-original="#2897b1"></path>
      <path xmlns="http://www.w3.org/2000/svg" d="m365.265 40.763h-80.144l-29.121 215.237 194.868-112.507c-19.204-42.939-49.056-78.68-85.603-102.73z" fill="#49b296" data-original="#49b296"></path>
      <path xmlns="http://www.w3.org/2000/svg" d="m256 7.5 119.933 40.769 4.334-7.506c-36.556-21.151-78.996-33.263-124.267-33.263z" fill="#49b296" data-original="#49b296"></path>
      <path xmlns="http://www.w3.org/2000/svg" d="m197.758 109.424 58.242 146.576 119.933-207.731c-34.43-25.764-75.637-40.769-119.933-40.769z" fill="#89c247" data-original="#89c247"></path>
      <path xmlns="http://www.w3.org/2000/svg" d="m131.733 471.237c36.556 21.151 78.996 33.263 124.267 33.263v-248.5h-124.267z" fill="#cb2e81" data-original="#cb2e81"></path>
      <path xmlns="http://www.w3.org/2000/svg" d="m40.763 380.267c21.819 37.71 53.26 69.151 90.97 90.97l124.267-215.237h-215.237z" fill="#ff3187" data-original="#ff3187"></path>
      <path xmlns="http://www.w3.org/2000/svg" d="m7.5 256c0 45.271 12.112 87.711 33.263 124.267l215.237-124.267-146.576-58.242z" fill="#ff5178" data-original="#ff5178"></path>
      <path xmlns="http://www.w3.org/2000/svg" d="m40.763 131.733c-21.151 36.556-33.263 78.996-33.263 124.267h248.5l-29.121-124.267z" fill="#ff9259" data-original="#ff9259"></path>
      <path xmlns="http://www.w3.org/2000/svg" d="m131.733 40.763c-37.71 21.819-69.151 53.26-90.97 90.97l215.237 124.267-29.121-215.237z" fill="#ffb24a" data-original="#ffb24a"></path>
      <path xmlns="http://www.w3.org/2000/svg" d="m256 7.5c-45.271 0-87.711 12.112-124.267 33.263l124.267 215.237z" fill="#ffd23b" data-original="#ffd23b"></path>
      <path xmlns="http://www.w3.org/2000/svg" d="m256 116v280c77.32 0 140-62.68 140-140s-62.68-140-140-140z" fill="#fff0be" data-original="#fff0be"></path>
      <path xmlns="http://www.w3.org/2000/svg" d="m366 256c0-77.32-49.249-140-110-140-77.32 0-140 62.68-140 140s62.68 140 140 140c60.751 0 110-62.68 110-140z" fill="#ffffff" data-original="#ffffff"></path>
      <path xmlns="http://www.w3.org/2000/svg" d="m256 512c-68.38 0-132.667-26.629-181.02-74.98-48.351-48.352-74.98-112.64-74.98-181.02s26.629-132.667 74.98-181.02c48.353-48.351 112.64-74.98 181.02-74.98s132.668 26.629 181.02 74.98c48.351 48.353 74.98 112.64 74.98 181.02s-26.629 132.668-74.98 181.02-112.64 74.98-181.02 74.98zm0-497c-132.888 0-241 108.112-241 241s108.112 241 241 241 241-108.112 241-241-108.112-241-241-241z" fill="#000000" data-original="#000000"></path>
      <path xmlns="http://www.w3.org/2000/svg" d="m256 403.5c-81.332 0-147.5-66.168-147.5-147.5s66.168-147.5 147.5-147.5 147.5 66.168 147.5 147.5-66.168 147.5-147.5 147.5zm0-280c-73.061 0-132.5 59.439-132.5 132.5s59.439 132.5 132.5 132.5 132.5-59.439 132.5-132.5-59.439-132.5-132.5-132.5z" fill="#000000" data-original="#000000"></path>
      <path xmlns="http://www.w3.org/2000/svg" d="m256 512c-4.142 0-7.5-3.357-7.5-7.5v-108.5c0-4.143 3.358-7.5 7.5-7.5s7.5 3.357 7.5 7.5v108.5c0 4.143-3.358 7.5-7.5 7.5z" fill="#000000" data-original="#000000"></path>
      <path xmlns="http://www.w3.org/2000/svg" d="m380.257 478.708c-2.592 0-5.112-1.345-6.502-3.751l-54.25-93.963c-2.071-3.587-.842-8.174 2.745-10.245 3.586-2.069 8.173-.843 10.245 2.745l54.25 93.963c2.071 3.587.842 8.174-2.745 10.245-1.181.682-2.471 1.006-3.743 1.006z" fill="#000000" data-original="#000000"></path>
      <path xmlns="http://www.w3.org/2000/svg" d="m471.2 387.751c-1.272 0-2.562-.324-3.743-1.006l-93.963-54.25c-3.587-2.071-4.816-6.658-2.745-10.245 2.07-3.588 6.655-4.816 10.245-2.745l93.963 54.25c3.587 2.071 4.816 6.658 2.745 10.245-1.389 2.406-3.91 3.751-6.502 3.751z" fill="#000000" data-original="#000000"></path>
      <path xmlns="http://www.w3.org/2000/svg" d="m504.5 263.5h-108.5c-4.143 0-7.5-3.358-7.5-7.5s3.357-7.5 7.5-7.5h108.5c4.143 0 7.5 3.358 7.5 7.5s-3.357 7.5-7.5 7.5z" fill="#000000" data-original="#000000"></path>
      <path xmlns="http://www.w3.org/2000/svg" d="m377.251 193.501c-2.592 0-5.112-1.345-6.502-3.751-2.071-3.587-.842-8.174 2.745-10.245l93.963-54.25c3.585-2.071 8.173-.842 10.245 2.745 2.071 3.587.842 8.174-2.745 10.245l-93.963 54.25c-1.181.682-2.471 1.006-3.743 1.006z" fill="#000000" data-original="#000000"></path>
      <path xmlns="http://www.w3.org/2000/svg" d="m325.993 142.257c-1.272 0-2.562-.324-3.743-1.006-3.587-2.071-4.816-6.658-2.745-10.245l54.25-93.963c2.069-3.587 6.655-4.817 10.245-2.745 3.587 2.071 4.816 6.658 2.745 10.245l-54.25 93.963c-1.389 2.406-3.91 3.751-6.502 3.751z" fill="#000000" data-original="#000000"></path>
      <path xmlns="http://www.w3.org/2000/svg" d="m256 123.5c-4.142 0-7.5-3.358-7.5-7.5v-108.5c0-4.142 3.358-7.5 7.5-7.5s7.5 3.358 7.5 7.5v108.5c0 4.142-3.358 7.5-7.5 7.5z" fill="#000000" data-original="#000000"></path>
      <path xmlns="http://www.w3.org/2000/svg" d="m186.007 142.257c-2.592 0-5.113-1.345-6.502-3.751l-54.25-93.963c-2.071-3.587-.842-8.174 2.745-10.245 3.588-2.071 8.174-.842 10.245 2.745l54.25 93.963c2.071 3.587.842 8.174-2.745 10.245-1.181.682-2.471 1.006-3.743 1.006z" fill="#000000" data-original="#000000"></path>
      <path xmlns="http://www.w3.org/2000/svg" d="m134.749 193.501c-1.272 0-2.562-.324-3.743-1.006l-93.963-54.25c-3.587-2.071-4.816-6.658-2.745-10.245 2.07-3.588 6.657-4.817 10.245-2.745l93.963 54.25c3.587 2.071 4.816 6.658 2.745 10.245-1.389 2.406-3.91 3.751-6.502 3.751z" fill="#000000" data-original="#000000"></path>
      <path xmlns="http://www.w3.org/2000/svg" d="m116 263.5h-108.5c-4.142 0-7.5-3.358-7.5-7.5s3.358-7.5 7.5-7.5h108.5c4.142 0 7.5 3.358 7.5 7.5s-3.358 7.5-7.5 7.5z" fill="#000000" data-original="#000000"></path>
      <path xmlns="http://www.w3.org/2000/svg" d="m40.8 387.751c-2.592 0-5.113-1.345-6.502-3.751-2.071-3.587-.842-8.174 2.745-10.245l93.963-54.25c3.587-2.07 8.174-.842 10.245 2.745s.842 8.174-2.745 10.245l-93.963 54.25c-1.181.682-2.471 1.006-3.743 1.006z" fill="#000000" data-original="#000000"></path>
      <path xmlns="http://www.w3.org/2000/svg" d="m131.743 478.708c-1.272 0-2.562-.324-3.743-1.006-3.587-2.071-4.816-6.658-2.745-10.245l54.25-93.963c2.071-3.589 6.658-4.815 10.245-2.745 3.587 2.071 4.816 6.658 2.745 10.245l-54.25 93.963c-1.389 2.406-3.91 3.751-6.502 3.751z" fill="#000000" data-original="#000000"></path>
      <path xmlns="http://www.w3.org/2000/svg" d="m301.664 229.601-45.664-53.601v152.5c33.137 0 60-26.863 60-60 0-14.846-5.404-28.423-14.336-38.899z" fill="#ff3187" data-original="#ff3187"></path>
      <path xmlns="http://www.w3.org/2000/svg" d="m286 268.5c0-14.846-2.702-28.423-7.168-38.899l-22.832-53.601-45.664 53.601c-8.932 10.476-14.336 24.053-14.336 38.899 0 33.137 26.863 60 60 60 16.569 0 30-26.863 30-60z" fill="#ff5178" data-original="#ff5178"></path>
      <path xmlns="http://www.w3.org/2000/svg" d="m256 336c-37.22 0-67.5-30.28-67.5-67.5 0-16.023 5.728-31.566 16.129-43.765 2.688-3.152 7.421-3.528 10.573-.841 3.152 2.688 3.528 7.421.841 10.573-8.088 9.486-12.543 21.573-12.543 34.033 0 28.948 23.551 52.5 52.5 52.5s52.5-23.552 52.5-52.5c0-12.459-4.455-24.546-12.543-34.033l-39.957-46.902-20.5 24.063c-2.686 3.154-7.418 3.533-10.573.845-3.153-2.686-3.532-7.419-.845-10.573l26.209-30.765c1.425-1.672 3.512-2.636 5.709-2.636s4.284.963 5.709 2.636l45.664 53.601c10.399 12.197 16.127 27.74 16.127 43.763 0 37.221-30.28 67.501-67.5 67.501z" fill="#000000" data-original="#000000"></path>
    </g>
  </symbol>
  <symbol xmlns="http://www.w3.org/2000/svg" version="1.1" xmlns:xlink="http://www.w3.org/1999/xlink" xmlnsSvgjs="http://svgjs.com/svgjs" x="0" y="0" xml:space="preserve" viewBox="0 0 511.991 511.991" id="fast">
    <g>
      <g xmlns="http://www.w3.org/2000/svg">
        <path d="m379.307 151.595c-2.958-.521-5.944-.877-8.944-1.069-6.191-23.6-16.328-46.981-31.911-70.448-21.986-33.175-54.467-64.321-91.977-79.041-4.567-1.792-9.721-1.238-13.8 1.483-4.081 2.72-6.574 7.264-6.677 12.168-.473 22.703 4.386 45.542 12.574 67.016-26.796-13.265-57.272-22.344-87.89-21.7-4.903.102-9.447 2.595-12.168 6.676s-3.274 9.234-1.483 13.8c14.671 37.387 45.734 69.902 79.031 91.971 22.603 15.009 46.952 26.083 72.767 32.51-1.42 4.951-2.32 10.116-2.696 15.474-.005.065-.009.13-.013.195-.55 9.626-7.026 19.371-18.343 19.371h-26.782c-68.403 0-126.459 52.846-134.139 122.018-.287-.004-.573-.018-.861-.018-33.084 0-60 26.916-60 60s26.916 60 60 60c13.817 0 26.955-4.721 37.446-13.107 26.448 27.168 63.539 43.097 102.715 43.097h144.839c8.284 0 15-6.706 15-14.99 0-24.486-11.793-46.268-30-59.964v-90.037c0-25.477 20.607-47 45-47h30c8.284 0 15-6.716 15-15v-30c0-51.075-36.458-94.563-86.688-103.405zm-273.312 300.405c-16.542 0-30-13.458-30-30s13.458-30 30-30c.278 0 .552.027.828.035 2.08 18.937 8.323 36.995 18.194 53.156-5.296 4.348-11.981 6.809-19.022 6.809zm330-182h-15c-41.381 0-75 35.439-75 77v76.507c-4.849-.988-9.863-1.507-15-1.507h-38.072c5.123-8.833 8.072-19.075 8.072-30 0-33.084-26.916-60-60-60-8.284 0-15 6.716-15 15s6.716 15 15 15c16.542 0 30 13.458 30 30s-13.458 30-30 30c-8.284 0-15 6.716-15 15s6.716 15 15 15c.061 0 .121-.004.181-.004.031 0 .06.004.091.004h89.728c19.557 0 36.239 12.539 42.43 30h-127.269c-56.433 0-104.603-41.569-109.664-94.637-6.008-62.997 43.48-117.363 104.503-117.363h26.782c25.945 0 46.685-20.435 48.287-47.549.552-7.683 2.753-14.337 6.728-20.339 6.11-9.224.445-21.713-10.556-23.155-27.969-3.668-56.426-16.126-79.59-31.506-21.324-14.133-41.957-33.501-56.115-55.425 25.639 4.627 51.453 16.202 72.745 30.48l19.333 12.963c13.589 9.11 29.935-7.206 20.813-20.812-3.502-5.931-24.323-34.902-31.401-74.119 21.811 14.084 41.2 34.65 55.432 56.123 14.155 21.317 25.379 46.294 30.252 71.84 1.455 7.628 8.491 12.89 16.218 12.116 4.76-.472 9.529-.297 14.183.522 35.862 6.313 61.891 37.375 61.891 73.86v15.001z" data-original="#000000"></path>
      </g>
    </g>
  </symbol>
  <symbol xmlns="http://www.w3.org/2000/svg" version="1.1" xmlns:xlink="http://www.w3.org/1999/xlink" xmlnsSvgjs="http://svgjs.com/svgjs" x="0" y="0" xml:space="preserve" viewBox="0 0 512 512" id="led off">
    <g>
      <g xmlns="http://www.w3.org/2000/svg">
        <path d="m437.02 74.98c-48.353-48.351-112.64-74.98-181.02-74.98s-132.667 26.629-181.02 74.98c-48.351 48.353-74.98 112.64-74.98 181.02s26.629 132.667 74.98 181.02c48.353 48.351 112.64 74.98 181.02 74.98s132.667-26.629 181.02-74.98c48.351-48.353 74.98-112.64 74.98-181.02s-26.629-132.667-74.98-181.02zm-181.02 407.02c-124.617 0-226-101.383-226-226s101.383-226 226-226 226 101.383 226 226-101.383 226-226 226z" data-original="#000000"></path>
        <path d="m322.009 104.821c-7.591-3.321-16.435.144-19.753 7.734-3.319 7.59.144 16.434 7.734 19.753 49.212 21.518 81.01 70.069 81.01 123.692 0 74.439-60.561 135-135 135s-135-60.561-135-135c0-53.623 31.798-102.174 81.009-123.691 7.59-3.319 11.053-12.163 7.734-19.753-3.319-7.591-12.163-11.055-19.753-7.734-60.134 26.292-98.99 85.634-98.99 151.178 0 90.981 74.019 165 165 165s165-74.019 165-165c0-65.544-38.856-124.886-98.991-151.179z" data-original="#000000"></path>
        <path d="m256 221c8.284 0 15-6.716 15-15v-120c0-8.284-6.716-15-15-15s-15 6.716-15 15v120c0 8.284 6.716 15 15 15z" data-original="#000000"></path>
      </g>
    </g>
  </symbol>
  <symbol xmlns="http://www.w3.org/2000/svg" version="1.1" xmlns:xlink="http://www.w3.org/1999/xlink" xmlnsSvgjs="http://svgjs.com/svgjs" x="0" y="0" xml:space="preserve" viewBox="0 0 512 512" id="led on">
    <g>
      <g xmlns="http://www.w3.org/2000/svg">
        <path d="m256 0c-141.159 0-256 114.841-256 256s114.841 256 256 256 256-114.841 256-256-114.841-256-256-256zm-15 86c0-8.284 6.716-15 15-15s15 6.716 15 15v120c0 8.284-6.716 15-15 15s-15-6.716-15-15zm15 335c-90.981 0-165-74.019-165-165 0-65.544 38.856-124.886 98.991-151.179 7.59-3.32 16.434.144 19.753 7.734s-.144 16.434-7.734 19.753c-49.212 21.518-81.01 70.069-81.01 123.692 0 74.439 60.561 135 135 135s135-60.561 135-135c0-53.623-31.798-102.174-81.009-123.691-7.59-3.319-11.053-12.163-7.734-19.753 3.318-7.591 12.162-11.056 19.753-7.734 60.134 26.292 98.99 85.634 98.99 151.178 0 90.981-74.019 165-165 165z" data-original="#000000"></path>
      </g>
    </g>
  </symbol>
  <symbol xmlns="http://www.w3.org/2000/svg" version="1.1" xmlns:xlink="http://www.w3.org/1999/xlink" xmlnsSvgjs="http://svgjs.com/svgjs" x="0" y="0" xml:space="preserve" viewBox="0 0 189.524 189.524" id="modes">
    <g>
      <g xmlns="http://www.w3.org/2000/svg">
        <g>
          <path clip-rule="evenodd" d="m94.762 180.048c47.102 0 85.286-38.183 85.286-85.286 0-47.102-38.183-85.286-85.286-85.286-47.102 0-85.286 38.184-85.286 85.286s38.184 85.286 85.286 85.286zm0 9.476c52.335 0 94.762-42.427 94.762-94.762 0-52.336-42.427-94.762-94.762-94.762-52.336 0-94.762 42.426-94.762 94.762 0 52.335 42.426 94.762 94.762 94.762z" fill-rule="evenodd"></path>
        </g>
        <g>
          <path clip-rule="evenodd" d="m119.386 94.762-43.577-29.051v58.103zm8.804-5.519c3.939 2.626 3.939 8.413 0 11.039l-51.545 34.364c-4.408 2.939-10.313-.222-10.313-5.52v-68.727c0-5.298 5.905-8.458 10.313-5.519z" fill-rule="evenodd"></path>
        </g>
      </g>
    </g>
  </symbol>
  <symbol xmlns="http://www.w3.org/2000/svg" version="1.1" xmlns:xlink="http://www.w3.org/1999/xlink" xmlnsSvgjs="http://svgjs.com/svgjs" x="0" y="0" xml:space="preserve" viewBox="0 0 64 64" id="slow">
    <g>
      <path xmlns="http://www.w3.org/2000/svg" d="m11.169 52.408h-6.492c-.921 0-1.729-.615-1.973-1.502-.926-3.354-.315-6.708.175-9.402.275-1.514.561-3.08.37-3.847-.274-1.097.394-2.209 1.492-2.481 1.105-.276 2.209.394 2.481 1.492.404 1.622.07 3.451-.315 5.57-.349 1.92-.737 4.047-.531 6.077h4.794c1.131 0 2.048.916 2.048 2.048 0 1.13-.917 2.045-2.049 2.045z" data-original="#000000"></path>
      <path xmlns="http://www.w3.org/2000/svg" d="m42.376 52.408h-5.384c-1.131 0-2.048-.916-2.048-2.048 0-2.321.069-4.911.134-6.858-4.565 1.362-11.548 2.517-18.148 1.615l-.189-.026c-3.703-.511-4.121-.335-4.607.784-.448 1.037-1.655 1.512-2.694 1.063-1.038-.45-1.513-1.656-1.063-2.694 1.818-4.188 5.594-3.669 8.923-3.21l.186.024c7.398 1.013 15.552-.918 18.949-2.374.649-.276 1.393-.203 1.973.201.578.402.911 1.074.877 1.778-.002.045-.177 3.855-.232 7.648h3.32c1.131 0 2.048.916 2.048 2.048s-.914 2.049-2.045 2.049z" data-original="#000000"></path>
      <path xmlns="http://www.w3.org/2000/svg" d="m23.465 25.577c-5.327 0-9.948-3.577-11.24-8.699-.276-1.096.388-2.21 1.485-2.486 1.098-.274 2.21.388 2.486 1.485.832 3.3 3.821 5.605 7.269 5.605 2.338 0 4.501-1.052 5.931-2.887.697-.893 1.983-1.049 2.875-.355.892.697 1.05 1.982.355 2.875-2.213 2.837-5.552 4.462-9.161 4.462z" data-original="#000000"></path>
      <path xmlns="http://www.w3.org/2000/svg" d="m12.628 33.623c-4.807 0-8.866-4.254-8.866-9.29 0-1.131.916-2.048 2.048-2.048s2.048.916 2.048 2.048c0 2.815 2.185 5.196 4.772 5.196 2.082 0 3.53-.869 4.422-2.656.506-1.014 1.739-1.422 2.748-.916 1.012.506 1.422 1.736.916 2.748-1.589 3.172-4.461 4.918-8.088 4.918z" data-original="#000000"></path>
      <path xmlns="http://www.w3.org/2000/svg" d="m23.843 33.203c-.264 0-.531-.011-.799-.032-1.128-.09-1.968-1.077-1.877-2.204.09-1.128 1.092-1.968 2.204-1.877 1.637.129 3.134-.456 3.917-1.531.88-1.208.875-2.981-.012-5.127-.432-1.046.065-2.243 1.111-2.676 1.048-.435 2.243.067 2.674 1.11 1.943 4.699.545 7.721-.463 9.103-1.496 2.058-3.982 3.234-6.755 3.234z" data-original="#000000"></path>
      <path xmlns="http://www.w3.org/2000/svg" d="m42.936 47.109c-.043 0-.088-.001-.131-.003-1.129-.071-1.987-1.044-1.916-2.173l.449-7.104c.042-.654.394-1.25.947-1.601 1.166-.739 2.355-1.611 3.534-2.593.368-.306.832-.474 1.311-.474 1.451 0 3.047.132 4.592.26 2.883.241 6.824.567 7.903-.428.083-.077.28-.255.28-.896 0-2.439-1.962-7.224-6.496-7.224-1.591 0-3.017.73-4.24 2.171-3.958 4.663-8.456 7.733-13.75 9.385-9.391 2.926-18.046 2.861-26.419 2.8-1.248-.01-2.503-.02-3.766-.02-1.688 0-3.141-.673-4.091-1.897-1.136-1.468-1.44-3.53-.853-5.807 1.77-6.885 9.233-19.912 24.809-19.912 13.635 0 19.386 9.504 19.623 9.909.367.625.378 1.397.027 2.03-3.427 6.192-8.943 4.972-10.78 3.978-.994-.537-1.364-1.779-.828-2.775.534-.987 1.764-1.36 2.755-.838.654.328 2.726 1.086 4.588-1.307-1.689-2.125-6.479-6.903-15.387-6.903-13.063 0-19.345 11.015-20.841 16.839-.302 1.175-.122 1.961.123 2.278.067.084.241.311.853.311 1.272 0 2.537.009 3.796.019 8.433.055 16.389.12 25.17-2.615 4.529-1.412 8.404-4.071 11.846-8.124 2.01-2.366 4.555-3.615 7.362-3.615 6.913-.001 10.594 6.573 10.594 11.317 0 2.013-.87 3.238-1.6 3.909-2.403 2.21-6.587 1.861-11.015 1.496-1.25-.104-2.444-.203-3.536-.235-.826.663-1.658 1.279-2.486 1.84l-.385 6.082c-.07 1.087-.971 1.92-2.042 1.92z" data-original="#000000"></path>
      <path xmlns="http://www.w3.org/2000/svg" d="m53.923 32.055c-.732 0-1.453-.301-1.963-.81s-.81-1.231-.81-1.963.301-1.443.81-1.965c1.032-1.021 2.884-1.032 3.927 0 .51.521.809 1.231.809 1.965 0 .731-.3 1.442-.809 1.963-.522.521-1.232.81-1.964.81z" data-original="#000000"></path>
    </g>
  </symbol>
  <symbol xmlns="http://www.w3.org/2000/svg" version="1.1" xmlns:xlink="http://www.w3.org/1999/xlink" xmlnsSvgjs="http://svgjs.com/svgjs" x="0" y="0" xml:space="preserve" viewBox="0 0 64 64" id="small-sun">
    <g>
      <g xmlns="http://www.w3.org/2000/svg">
        <g id="LINE_278_">
          <g>
            <path d="m32 14c-1.104 0-2-.896-2-2v-4c0-1.104.896-2 2-2s2 .896 2 2v4c0 1.104-.896 2-2 2z" data-original="#000000"></path>
          </g>
        </g>
        <g id="LINE_277_">
          <g>
            <path d="m56 34h-4c-1.104 0-2-.896-2-2s.896-2 2-2h4c1.104 0 2 .896 2 2s-.896 2-2 2z" data-original="#000000"></path>
          </g>
        </g>
        <g id="LINE_276_">
          <g>
            <path d="m32 58c-1.104 0-2-.896-2-2v-4c0-1.104.896-2 2-2s2 .896 2 2v4c0 1.104-.896 2-2 2z" data-original="#000000"></path>
          </g>
        </g>
        <g id="LINE_275_">
          <g>
            <path d="m12 34h-4c-1.104 0-2-.896-2-2s.896-2 2-2h4c1.104 0 2 .896 2 2s-.896 2-2 2z" data-original="#000000"></path>
          </g>
        </g>
        <g id="CIRCLE_30_">
          <g>
            <path d="m31.906 45.991c-1.343 0-2.681-.199-3.975-.592-4.955-1.503-8.762-5.763-9.699-10.851-.953-5.178 1.148-10.57 5.352-13.738 2.395-1.803 5.393-2.796 8.442-2.796 2.207 0 4.395.521 6.328 1.507 4.645 2.371 7.646 7.269 7.646 12.479 0 3.762-1.514 7.3-4.264 9.961-2.646 2.561-6.229 4.03-9.83 4.03zm.12-23.976c-2.187 0-4.33.707-6.035 1.991-3.004 2.264-4.506 6.118-3.825 9.819.669 3.632 3.388 6.673 6.926 7.747 3.404 1.035 7.251.042 9.862-2.484 1.964-1.902 3.046-4.419 3.046-7.088 0-3.722-2.145-7.222-5.464-8.915-1.373-.7-2.932-1.07-4.51-1.07z" data-original="#000000"></path>
          </g>
        </g>
      </g>
    </g>
  </symbol>
  <symbol xmlns="http://www.w3.org/2000/svg" version="1.1" xmlns:xlink="http://www.w3.org/1999/xlink" xmlnsSvgjs="http://svgjs.com/svgjs" x="0" y="0" xml:space="preserve" viewBox="0 0 512 512" id="settings">
    <g>
      <path xmlns="http://www.w3.org/2000/svg" d="m272.066 512h-32.133c-25.989 0-47.134-21.144-47.134-47.133v-10.871c-11.049-3.53-21.784-7.986-32.097-13.323l-7.704 7.704c-18.659 18.682-48.548 18.134-66.665-.007l-22.711-22.71c-18.149-18.129-18.671-48.008.006-66.665l7.698-7.698c-5.337-10.313-9.792-21.046-13.323-32.097h-10.87c-25.988 0-47.133-21.144-47.133-47.133v-32.134c0-25.989 21.145-47.133 47.134-47.133h10.87c3.531-11.05 7.986-21.784 13.323-32.097l-7.704-7.703c-18.666-18.646-18.151-48.528.006-66.665l22.713-22.712c18.159-18.184 48.041-18.638 66.664.006l7.697 7.697c10.313-5.336 21.048-9.792 32.097-13.323v-10.87c0-25.989 21.144-47.133 47.134-47.133h32.133c25.989 0 47.133 21.144 47.133 47.133v10.871c11.049 3.53 21.784 7.986 32.097 13.323l7.704-7.704c18.659-18.682 48.548-18.134 66.665.007l22.711 22.71c18.149 18.129 18.671 48.008-.006 66.665l-7.698 7.698c5.337 10.313 9.792 21.046 13.323 32.097h10.87c25.989 0 47.134 21.144 47.134 47.133v32.134c0 25.989-21.145 47.133-47.134 47.133h-10.87c-3.531 11.05-7.986 21.784-13.323 32.097l7.704 7.704c18.666 18.646 18.151 48.528-.006 66.665l-22.713 22.712c-18.159 18.184-48.041 18.638-66.664-.006l-7.697-7.697c-10.313 5.336-21.048 9.792-32.097 13.323v10.871c0 25.987-21.144 47.131-47.134 47.131zm-106.349-102.83c14.327 8.473 29.747 14.874 45.831 19.025 6.624 1.709 11.252 7.683 11.252 14.524v22.148c0 9.447 7.687 17.133 17.134 17.133h32.133c9.447 0 17.134-7.686 17.134-17.133v-22.148c0-6.841 4.628-12.815 11.252-14.524 16.084-4.151 31.504-10.552 45.831-19.025 5.895-3.486 13.4-2.538 18.243 2.305l15.688 15.689c6.764 6.772 17.626 6.615 24.224.007l22.727-22.726c6.582-6.574 6.802-17.438.006-24.225l-15.695-15.695c-4.842-4.842-5.79-12.348-2.305-18.242 8.473-14.326 14.873-29.746 19.024-45.831 1.71-6.624 7.684-11.251 14.524-11.251h22.147c9.447 0 17.134-7.686 17.134-17.133v-32.134c0-9.447-7.687-17.133-17.134-17.133h-22.147c-6.841 0-12.814-4.628-14.524-11.251-4.151-16.085-10.552-31.505-19.024-45.831-3.485-5.894-2.537-13.4 2.305-18.242l15.689-15.689c6.782-6.774 6.605-17.634.006-24.225l-22.725-22.725c-6.587-6.596-17.451-6.789-24.225-.006l-15.694 15.695c-4.842 4.843-12.35 5.791-18.243 2.305-14.327-8.473-29.747-14.874-45.831-19.025-6.624-1.709-11.252-7.683-11.252-14.524v-22.15c0-9.447-7.687-17.133-17.134-17.133h-32.133c-9.447 0-17.134 7.686-17.134 17.133v22.148c0 6.841-4.628 12.815-11.252 14.524-16.084 4.151-31.504 10.552-45.831 19.025-5.896 3.485-13.401 2.537-18.243-2.305l-15.688-15.689c-6.764-6.772-17.627-6.615-24.224-.007l-22.727 22.726c-6.582 6.574-6.802 17.437-.006 24.225l15.695 15.695c4.842 4.842 5.79 12.348 2.305 18.242-8.473 14.326-14.873 29.746-19.024 45.831-1.71 6.624-7.684 11.251-14.524 11.251h-22.148c-9.447.001-17.134 7.687-17.134 17.134v32.134c0 9.447 7.687 17.133 17.134 17.133h22.147c6.841 0 12.814 4.628 14.524 11.251 4.151 16.085 10.552 31.505 19.024 45.831 3.485 5.894 2.537 13.4-2.305 18.242l-15.689 15.689c-6.782 6.774-6.605 17.634-.006 24.225l22.725 22.725c6.587 6.596 17.451 6.789 24.225.006l15.694-15.695c3.568-3.567 10.991-6.594 18.244-2.304z" data-original="#000000"></path>
      <path xmlns="http://www.w3.org/2000/svg" d="m256 367.4c-61.427 0-111.4-49.974-111.4-111.4s49.973-111.4 111.4-111.4 111.4 49.974 111.4 111.4-49.973 111.4-111.4 111.4zm0-192.8c-44.885 0-81.4 36.516-81.4 81.4s36.516 81.4 81.4 81.4 81.4-36.516 81.4-81.4-36.515-81.4-81.4-81.4z" data-original="#000000"></path>
    </g>
  </symbol>
  <symbol xmlns="http://www.w3.org/2000/svg" version="1.1" xmlns:xlink="http://www.w3.org/1999/xlink" xmlnsSvgjs="http://svgjs.com/svgjs" x="0" y="0" xml:space="preserve" viewBox="0 0 551.13 551.13" id="big-sun">
    <g>
      <path xmlns="http://www.w3.org/2000/svg" d="m275.565 103.337c9.52 0 17.223-7.703 17.223-17.223v-68.891c0-9.52-7.703-17.223-17.223-17.223s-17.223 7.703-17.223 17.223v68.891c0 9.52 7.703 17.223 17.223 17.223z" data-original="#000000"></path>
      <path xmlns="http://www.w3.org/2000/svg" d="m275.565 447.793c-9.52 0-17.223 7.703-17.223 17.223v68.891c0 9.52 7.703 17.223 17.223 17.223s17.223-7.703 17.223-17.223v-68.891c0-9.52-7.703-17.223-17.223-17.223z" data-original="#000000"></path>
      <path xmlns="http://www.w3.org/2000/svg" d="m533.907 258.342h-68.891c-9.52 0-17.223 7.703-17.223 17.223s7.703 17.223 17.223 17.223h68.891c9.52 0 17.223-7.703 17.223-17.223s-7.703-17.223-17.223-17.223z" data-original="#000000"></path>
      <path xmlns="http://www.w3.org/2000/svg" d="m103.337 275.565c0-9.52-7.703-17.223-17.223-17.223h-68.891c-9.52 0-17.223 7.703-17.223 17.223s7.703 17.223 17.223 17.223h68.891c9.52 0 17.223-7.703 17.223-17.223z" data-original="#000000"></path>
      <path xmlns="http://www.w3.org/2000/svg" d="m409.529 158.823c4.407 0 8.813-1.682 12.177-5.046l48.708-48.708c6.728-6.728 6.728-17.626 0-24.354s-17.626-6.728-24.354 0l-48.708 48.708c-6.728 6.728-6.728 17.626 0 24.354 3.363 3.364 7.77 5.046 12.177 5.046z" data-original="#000000"></path>
      <path xmlns="http://www.w3.org/2000/svg" d="m129.424 397.351-48.709 48.709c-6.728 6.728-6.728 17.626 0 24.354 3.364 3.364 7.77 5.046 12.177 5.046s8.813-1.682 12.177-5.046l48.708-48.708c6.728-6.728 6.728-17.626 0-24.354s-17.626-6.728-24.353-.001z" data-original="#000000"></path>
      <path xmlns="http://www.w3.org/2000/svg" d="m421.706 397.351c-6.728-6.728-17.626-6.728-24.354 0s-6.728 17.626 0 24.354l48.708 48.708c3.364 3.364 7.77 5.046 12.177 5.046s8.813-1.682 12.177-5.046c6.728-6.728 6.728-17.626 0-24.354 0 .001-48.708-48.708-48.708-48.708z" data-original="#000000"></path>
      <path xmlns="http://www.w3.org/2000/svg" d="m129.423 153.778c3.364 3.364 7.77 5.046 12.177 5.046s8.813-1.682 12.177-5.046c6.728-6.728 6.728-17.626 0-24.354l-48.708-48.708c-6.728-6.728-17.626-6.728-24.354 0s-6.728 17.626 0 24.354c0 0 48.708 48.708 48.708 48.708z" data-original="#000000"></path>
      <path xmlns="http://www.w3.org/2000/svg" d="m275.565 137.783c-75.972 0-137.783 61.81-137.783 137.783s61.81 137.783 137.783 137.783 137.783-61.81 137.783-137.783-61.811-137.783-137.783-137.783zm0 241.119c-56.983 0-103.337-46.354-103.337-103.337s46.353-103.337 103.337-103.337 103.337 46.353 103.337 103.337-46.354 103.337-103.337 103.337z" data-original="#000000"></path>
    </g>
  </symbol>
</svg>