<?xml version="1.0" standalone="no"?>
<!DOCTYPE svg PUBLIC "-//W3C//DTD SVG 20010904//EN"
 "http://www.w3.org/TR/2001/REC-SVG-20010904/DTD/svg10.dtd">
<svg version="1.0" xmlns="http://www.w3.org/2000/svg"
 width="512.000000pt" height="512.000000pt" viewBox="0 0 512.000000 512.000000"
 preserveAspectRatio="xMidYMid meet">
<metadata>
Created by potrace 1.14, written by Peter Selinger 2001-2017
</metadata>
<g transform="translate(0.000000,512.000000) scale(0.100000,-0.100000)"
fill="#000000" stroke="none">
<path d="M3217 5114 c-4 -4 -7 -76 -7 -159 0 -115 -3 -155 -13 -164 -8 -6 -42
-15 -78 -20 -35 -5 -104 -17 -154 -26 -49 -9 -115 -20 -145 -25 -30 -4 -66
-13 -80 -18 -38 -15 -77 -62 -89 -107 -7 -26 -11 -223 -11 -582 l0 -541 -215
-209 c-118 -114 -215 -215 -215 -224 0 -28 295 -325 362 -364 32 -19 64 -35
70 -35 6 0 65 41 131 91 94 71 124 89 143 85 12 -3 68 -39 124 -79 l102 -72
224 -338 c124 -186 228 -337 233 -335 5 2 225 216 489 476 361 355 486 484
504 520 17 35 24 68 26 134 7 159 -44 302 -186 518 -74 112 -277 315 -397 396
l-90 60 -5 325 c-5 355 -8 367 -65 400 -18 11 -71 22 -137 28 -90 9 -122 8
-200 -6 -51 -10 -115 -18 -143 -18 l-50 0 -5 145 -5 145 -55 3 c-31 2 -59 0
-63 -4z m478 -637 l0 -272 -25 3 c-134 14 -180 14 -231 -3 -75 -24 -98 -43
-327 -269 -112 -111 -210 -202 -218 -204 -12 -3 -14 54 -14 408 0 502 -3 489
122 515 35 7 93 16 130 19 61 7 67 6 78 -14 10 -18 19 -21 68 -18 54 3 57 4
62 33 6 35 12 37 160 60 58 9 121 20 140 24 19 4 40 4 45 -1 6 -6 10 -112 10
-281z m-230 -427 c14 -16 16 -26 9 -44 -8 -20 -273 -280 -705 -693 -65 -62
-124 -113 -130 -113 -17 0 -49 30 -49 46 0 6 123 131 272 276 150 144 339 327
420 406 80 78 150 142 156 142 5 0 17 -9 27 -20z m229 -52 c7 -11 7 -25 1 -42
-6 -14 -98 -110 -205 -213 -107 -103 -286 -276 -398 -385 -206 -201 -232 -219
-262 -183 -19 23 -4 47 88 136 48 46 213 206 367 355 358 346 367 354 384 351
8 -1 19 -10 25 -19z m350 -214 c9 -8 16 -21 16 -27 0 -14 -98 -117 -111 -117
-5 0 -9 24 -9 54 0 48 3 57 31 80 35 30 51 32 73 10z m-344 -53 l0 -50 -316
-305 c-174 -168 -324 -306 -334 -306 -23 0 -42 24 -38 49 3 22 656 660 676
661 8 0 12 -16 12 -49z m488 -63 c28 -28 11 -54 -110 -170 -67 -64 -125 -115
-130 -112 -4 3 -8 27 -8 54 l0 48 102 96 c101 95 123 107 146 84z m126 -154
c9 -8 16 -22 16 -30 0 -8 -64 -76 -142 -151 -79 -76 -163 -157 -187 -180 -24
-24 -48 -43 -52 -43 -5 0 -9 22 -9 50 0 57 -11 44 191 239 75 72 144 131 152
131 9 0 23 -7 31 -16z m-614 -71 l0 -48 -227 -222 c-126 -123 -238 -226 -251
-229 -26 -7 -52 11 -52 36 0 11 65 82 147 162 82 79 195 189 253 245 58 57
111 103 118 103 8 0 12 -16 12 -47z m718 -134 c3 -22 -30 -58 -229 -250 -127
-123 -234 -224 -238 -224 -3 0 -7 23 -9 50 l-4 50 209 202 c185 180 211 203
238 200 24 -2 31 -7 33 -28z m-718 -128 l0 -49 -162 -156 c-88 -86 -168 -156
-176 -156 -18 0 -52 29 -52 44 0 15 362 365 378 366 8 0 12 -16 12 -49z m784
-67 c18 -18 18 -17 10 -37 -5 -13 -683 -675 -789 -771 -43 -39 -66 -44 -85
-21 -21 25 -3 59 67 125 92 86 275 263 531 513 122 118 222 207 232 207 10 0
26 -7 34 -16z m-784 -203 c0 -48 -1 -49 -95 -142 -53 -52 -105 -95 -116 -97
-24 -4 -49 14 -49 37 0 18 229 251 247 251 9 0 13 -16 13 -49z m164 -150 c7
-10 -244 -261 -274 -275 -13 -6 -25 -5 -35 4 -33 27 -17 54 98 168 112 110
115 112 160 112 25 0 48 -4 51 -9z"/>
<path d="M1305 3249 c-90 -8 -430 -33 -620 -45 -55 -4 -111 -11 -125 -17 l-25
-10 30 -8 c17 -4 57 -13 90 -20 33 -6 85 -17 115 -24 30 -7 82 -18 115 -25
118 -24 101 -17 440 -195 291 -153 376 -196 383 -191 4 2 131 9 282 16 322 13
380 18 380 32 0 21 -343 368 -369 374 -14 3 -73 17 -131 30 -58 14 -152 36
-210 50 -58 13 -121 29 -141 34 -40 11 -82 11 -214 -1z"/>
<path d="M2800 2679 c-58 -44 -106 -84 -108 -89 -2 -5 45 -82 104 -172 258
-392 527 -794 542 -811 8 -9 54 -38 101 -64 47 -25 100 -54 116 -63 43 -24
140 -77 215 -118 61 -33 151 -106 265 -214 30 -29 51 -42 53 -34 2 7 -52 96
-120 197 -68 101 -125 189 -128 194 -5 11 -209 319 -535 809 -192 288 -203
303 -275 358 -132 100 -110 99 -230 7z"/>
<path d="M1900 2655 c-17 -20 -8 -135 18 -230 27 -101 65 -173 176 -333 219
-316 508 -522 804 -573 59 -10 86 -10 139 1 80 15 108 29 164 79 l43 38 -30
46 c-29 46 -54 61 -54 32 0 -8 -16 -30 -35 -49 -159 -159 -618 48 -907 409
-139 174 -215 346 -225 508 l-6 87 -37 0 c-21 0 -43 -7 -50 -15z"/>
<path d="M1550 2489 c-85 -4 -233 -13 -328 -19 l-173 -10 -250 -127 c-138 -69
-253 -132 -256 -139 -2 -7 48 -81 112 -166 64 -84 277 -368 473 -630 196 -262
363 -477 371 -478 7 0 72 37 145 82 72 45 140 86 151 92 11 6 34 20 50 30 17
11 49 31 71 46 52 33 444 410 444 426 0 7 -64 104 -142 216 -77 111 -189 273
-248 358 -215 313 -230 332 -254 329 -6 -1 -81 -6 -166 -10z"/>
<path d="M2516 1459 c-24 -69 -63 -191 -106 -329 -72 -228 -97 -305 -127 -380
-14 -36 -32 -83 -40 -105 -26 -67 -33 -88 -73 -190 -4 -11 -17 -42 -28 -70
-30 -72 -32 -71 193 -115 53 -10 247 -50 485 -100 107 -23 218 -46 245 -51 76
-16 145 -22 145 -12 0 8 13 54 66 243 28 101 72 260 86 313 8 28 7 61 -2 120
-7 45 -16 105 -20 132 -12 80 -50 312 -69 415 l-17 95 -145 6 c-181 9 -467 27
-536 35 -40 5 -54 3 -57 -7z"/>
</g>
</svg>
