<?xml version="1.0" standalone="no"?>
<!DOCTYPE svg PUBLIC "-//W3C//DTD SVG 20010904//EN"
 "http://www.w3.org/TR/2001/REC-SVG-20010904/DTD/svg10.dtd">
<svg version="1.0" xmlns="http://www.w3.org/2000/svg"
 width="300.000000pt" height="300.000000pt" viewBox="0 0 300.000000 300.000000"
 preserveAspectRatio="xMidYMid meet">
<metadata>
Created by potrace 1.14, written by Peter Selinger 2001-2017
</metadata>
<g transform="translate(0.000000,300.000000) scale(0.100000,-0.100000)"
fill="#000000" stroke="none">
<path d="M258 2986 c-99 -27 -184 -104 -234 -211 -18 -38 -19 -94 -22 -1217
-1 -648 0 -1178 2 -1178 3 0 29 9 58 21 174 69 380 123 548 142 14 1 30 5 35
9 8 5 320 3 440 -3 103 -5 103 -2 -10 56 -223 114 -365 258 -469 476 -74 155
-91 235 -90 429 1 148 3 174 27 255 57 189 179 380 313 487 35 28 66 60 70 70
3 10 9 16 14 13 5 -3 35 7 67 23 82 41 105 48 97 27 -5 -11 0 -18 15 -22 16
-4 19 -9 11 -18 -16 -20 -2 -65 18 -58 10 3 -21 -18 -67 -47 -345 -216 -496
-589 -396 -975 54 -208 228 -416 430 -516 137 -68 230 -90 380 -90 131 0 221
15 327 55 67 25 98 26 98 1 0 -7 9 -24 20 -38 13 -16 16 -28 10 -32 -6 -4 -8
-10 -5 -15 11 -18 -222 -110 -281 -110 -15 0 -16 -2 -5 -9 10 -6 -7 -11 -50
-14 -35 -2 -104 -9 -154 -16 -49 -6 -135 -15 -190 -20 -99 -8 -99 -8 -30 -10
67 -2 69 -2 45 -17 -19 -11 -20 -14 -5 -10 11 3 54 8 95 11 107 9 68 -11 -47
-24 -51 -5 -100 -14 -110 -19 -10 -6 -56 -19 -103 -30 -96 -23 -218 -38 -184
-23 35 15 216 52 231 47 7 -3 13 -2 13 3 0 4 10 13 23 20 22 11 22 11 -3 6
-26 -7 -301 -37 -505 -56 -65 -6 -143 -9 -172 -7 -28 3 -50 2 -48 -2 2 -3 -9
-4 -25 -2 -16 2 -97 -15 -182 -39 -135 -38 -170 -45 -227 -48 -35 -2 35 -130
99 -181 20 -16 59 -40 86 -52 l49 -23 1205 -3 c927 -2 1215 0 1249 9 25 7 40
14 33 17 -7 2 -12 8 -12 13 0 6 8 6 19 -1 11 -5 24 -10 29 -10 19 0 127 89
151 125 22 33 23 37 7 53 -31 35 -20 57 26 53 12 -2 18 9 23 41 3 24 5 581 3
1238 l-3 1195 -26 56 c-37 79 -87 130 -166 170 l-67 34 -1215 2 c-962 1 -1226
-1 -1263 -11z m1438 -736 c259 -65 465 -258 551 -515 24 -72 27 -95 27 -230 1
-169 -8 -214 -74 -350 -125 -258 -393 -426 -685 -426 -136 -1 -230 21 -350 81
-203 101 -349 281 -406 499 -28 105 -28 277 0 382 71 271 295 494 562 559 105
26 272 26 375 0z m724 -1050 l23 -20 -24 -19 c-30 -25 -38 -25 -69 -2 l-24 19
24 21 c31 26 41 26 70 1z m80 -860 c0 -5 -7 -10 -15 -10 -8 0 -15 5 -15 10 0
6 7 10 15 10 8 0 15 -4 15 -10z m258 -170 c39 -24 43 -50 7 -50 -49 0 -97 49
-62 63 19 8 20 8 55 -13z"/>
<path d="M1352 2110 c-214 -58 -374 -211 -448 -430 -27 -78 -27 -282 0 -360
36 -106 88 -192 163 -266 276 -277 741 -232 964 92 135 197 142 473 17 681
-43 71 -141 169 -211 211 -141 85 -334 113 -485 72z m-232 -580 l0 -160 90 0
90 0 0 -30 0 -30 -125 0 -125 0 0 190 0 190 35 0 35 0 0 -160z m490 125 l0
-35 -95 0 -95 0 0 -40 0 -40 90 0 90 0 0 -36 0 -35 -87 2 -88 2 0 -49 0 -49
98 -3 97 -3 0 -29 0 -30 -135 0 -135 0 0 190 0 190 130 0 130 0 0 -35z m304
12 c91 -60 87 -280 -6 -337 -27 -16 -50 -20 -130 -20 l-98 0 0 191 0 191 103
-4 c78 -2 110 -8 131 -21z"/>
<path d="M1757 1498 l2 -123 53 2 c39 2 57 8 69 22 35 43 31 160 -7 202 -13
14 -30 19 -68 19 l-51 0 2 -122z"/>
<path d="M0 360 c0 -13 20 -13 40 0 12 8 9 10 -12 10 -16 0 -28 -4 -28 -10z"/>
</g>
</svg>
